<mxfile host="app.diagrams.net" modified="2024-02-20T08:25:14.450Z" agent="Mozilla/5.0 (Windows NT 10.0; Win64; x64) AppleWebKit/537.36 (KHTML, like Gecko) Chrome/120.0.0.0 Safari/537.36" version="22.1.21" etag="4DaHkXM2wyksLgiOT0l8" type="github">
  <diagram name="第 1 页" id="LAd-KOG8zU5rjp0ORiDB">
    <mxGraphModel>
      <root>
        <mxCell id="0" />
        <mxCell id="1" parent="0" />
      </root>
    </mxGraphModel>
  </diagram>
</mxfile>
